
<?xml-stylesheet type="text/css" href="style.css" ?>

<svg height="250px" xmlns="http://www.w3.org/2000/svg" viewBox="0 0 73.46 86.75">
  <defs>
    <style>
      .cls-1, .cls-4 {
        fill: #fff;
      }

      .cls-1 {
        opacity: 0.9;
      }

      .cls-2 {
        fill: #818285;
      }

      .cls-3 {
        fill: #6e6f72;
      }

      .cls-5 {
        fill: #010101;
      }

      .cls-6 {
        fill: #202020;
      }

      .cls-7 {
        fill: #e6e7e7;
        opacity: 0.75;
      }
    </style>
  </defs>
  <title>testKittyAni</title>
  <g id="whiteCat">
    <path class="cls-1" d="M1,63.53a8.55,8.55,0,0,0,8.71,5.16,7,7,0,0,0,5-3,4.14,4.14,0,0,0,1.21,3.52A7.05,7.05,0,0,0,23,71a7.94,7.94,0,0,0,1.83,5.28c3.54,4.09,10.79,4.73,15.25,2a15,15,0,0,0,6.37-9,13.76,13.76,0,0,0-1.1-10.55A14.56,14.56,0,0,0,38.08,53c-3.87-1.56-7.89-1.78-11.64-3.64-3.9-1.94-7.43-5.3-8.12-9.6a22.45,22.45,0,0,1,.09-4.41,15.25,15.25,0,0,1-3.25,3.76,5.14,5.14,0,0,1-4.69.94c-2.18-.81-3.11-3.31-3.79-5.53A72.36,72.36,0,0,0,.5,56.14,15,15,0,0,0,1,63.53Z"/>
    <path class="cls-2" d="M29.44,61.81c.79-.2,1.54-.48,2.33-.67A9.84,9.84,0,0,1,33,60.9a13,13,0,0,1,1.81-.13,5,5,0,0,1,1.64.22,2.52,2.52,0,0,1,.78.4,2.06,2.06,0,0,1,.58.72,2.43,2.43,0,0,1,.2,1.07,3.1,3.1,0,0,1-.16.91,2.51,2.51,0,0,1-.16.4,4.54,4.54,0,0,1-.88,1.29,8.67,8.67,0,0,1-1.2,1.06c-.83.61-1.76,1.11-2.65,1.67a9.49,9.49,0,0,0-2.28,1.86,3.65,3.65,0,0,0-.29.37c-.08.13-.17.26-.24.4a5,5,0,0,0-.37.85l-.07.22,0,.23a1.85,1.85,0,0,0,0,.23l0,.23a3.78,3.78,0,0,0,0,.95,2.82,2.82,0,0,0,.53,1.28,2.59,2.59,0,0,0,1.1.86,3.55,3.55,0,0,0,1.36.27A5.51,5.51,0,0,0,34,76.11a13.43,13.43,0,0,0,1.53-.45A9.09,9.09,0,0,0,37,75a7.69,7.69,0,0,0,2-1.73A7.87,7.87,0,0,0,40.34,71a2,2,0,0,0,.06-.23.58.58,0,0,0,0-.18s-.13,0-.15.08a13.08,13.08,0,0,1-1,1.92,5.84,5.84,0,0,1-.78,1,8.18,8.18,0,0,1-2.08,1.52,8,8,0,0,1-2.47.78l-.34,0a4.32,4.32,0,0,1-2-.15,2.44,2.44,0,0,1-.84-.49,1.37,1.37,0,0,1-.17-.17c-.06-.06-.1-.13-.15-.19a2.43,2.43,0,0,1-.14-.2l-.06-.11-.05-.11a2.81,2.81,0,0,1-.23-1,3.94,3.94,0,0,1,.11-1A4.55,4.55,0,0,1,31,70.64a8.25,8.25,0,0,1,1.75-1.52c.65-.44,1.33-.83,2-1.26a16.45,16.45,0,0,0,2-1.42,5.83,5.83,0,0,0,1-1.07,3.9,3.9,0,0,0,.6-1.27,3.31,3.31,0,0,0,.1-1.4,2.42,2.42,0,0,0-.58-1.29A2.63,2.63,0,0,0,37.3,61a4.08,4.08,0,0,0-.63-.31A5.06,5.06,0,0,0,35,60.35a7.48,7.48,0,0,0-1.64.16,7.58,7.58,0,0,1-.81.13,8.42,8.42,0,0,0-2.7.8,2.26,2.26,0,0,0-.52.31C29.26,61.82,29.3,61.85,29.44,61.81Z"/>
    <path class="cls-3" d="M9.19,58.86l.13-.07.07,0,.07,0,.28-.12.29-.1.29-.07a4.1,4.1,0,0,1,1.21-.06,4,4,0,0,1,2.19.92l.22.2c.06.08.14.15.2.22a4,4,0,0,1,.35.49A4.35,4.35,0,0,1,15,61.3a5.17,5.17,0,0,1,.1,2.41,5,5,0,0,1-.83,2,6.18,6.18,0,0,1-2.27,2,7,7,0,0,1-1.62.61,6.66,6.66,0,0,1-.89.17l-.46,0-.23,0h-.7l-.47,0a3.81,3.81,0,0,1-.47-.07,3.41,3.41,0,0,1-.46-.1l-.46-.12c-.15,0-.3-.1-.45-.15l-.23-.08-.21-.1-.22-.1-.21-.1-.42-.22-.2-.12-.2-.13L3.89,67l-.19-.13-.37-.28L3,66.28l-.16-.15L2.67,66c-.1-.1-.21-.21-.3-.32l-.28-.34c-.09-.11-.17-.24-.25-.35s-.16-.24-.23-.36l-.21-.36-.09-.18-.09-.19a7.77,7.77,0,0,1-.51-1.44A10,10,0,0,1,.47,61.1l0-.3,0-.28c0-.19,0-.36,0-.53,0-.65,0-1.13,0-1.36,0-.59.09-1.26.18-2,0-.37.09-.74.14-1.13s.1-.77.17-1.17c.23-1.6.54-3.29.88-4.83s.68-2.94,1-4c.14-.51.27-.93.35-1.24l.16-.52q1-3.18,2.23-6.27c.1-.26.21-.51.32-.77L6.13,36l.33-.76.06-.13,0-.05h0v0l0,.1.05.17.07.19c.09.27.19.53.29.79a10.68,10.68,0,0,0,.72,1.53,6.42,6.42,0,0,0,1,1.32,4.46,4.46,0,0,0,1.37.94,4,4,0,0,0,1.62.34,4.57,4.57,0,0,0,.83-.07l.4-.08.2-.06.2-.06a6.15,6.15,0,0,0,1.48-.72,8.33,8.33,0,0,0,1.26-1,15.45,15.45,0,0,0,1.08-1.22c.16-.22.33-.43.48-.65l.24-.33.13-.18.12-.18h0v.25l-.05.62c0,.47-.08.94-.09,1.42a8.64,8.64,0,0,0,.08,1.44l0,.18,0,.18.07.35,0,.18v.09l0,.08.1.35a11,11,0,0,0,1.17,2.62,13.36,13.36,0,0,0,1.77,2.26,16.74,16.74,0,0,0,2.86,2.38A19.05,19.05,0,0,0,27.45,50,26.94,26.94,0,0,0,31,51.19c1.19.31,2.39.59,3.57.91.86.23,1.72.48,2.55.78a19.41,19.41,0,0,1,2.43,1.06,16.27,16.27,0,0,1,2.25,1.4,13.62,13.62,0,0,1,1.95,1.77,11,11,0,0,1,1.51,2.13,11.74,11.74,0,0,1,1,2.44,14.38,14.38,0,0,1,.38,5.23,15.88,15.88,0,0,1-1.91,6,14.11,14.11,0,0,1-4.17,4.72c-.17.13-.36.24-.55.36a1.61,1.61,0,0,1-.28.17l-.28.17c-.2.1-.39.2-.6.29l-.3.13-.3.12a12.44,12.44,0,0,1-2.55.67,14.6,14.6,0,0,1-2.64.13,13.67,13.67,0,0,1-2.62-.37,12.87,12.87,0,0,1-2.48-.89A10.28,10.28,0,0,1,25.73,77a7.42,7.42,0,0,1-1.66-2,7.61,7.61,0,0,1-.86-2.45c-.06-.31-.08-.64-.12-.92L23,71.29,23,71a1.72,1.72,0,0,0-.11.52,7.91,7.91,0,0,0,1.33,4.28,9.09,9.09,0,0,0,3.49,2.9c.4.2.81.36,1.22.52s.83.28,1.26.38.86.19,1.3.26.87.12,1.31.14.9,0,1.35,0a12.3,12.3,0,0,0,1.34-.11,12.51,12.51,0,0,0,2.62-.63l.32-.12.31-.13c.2-.1.41-.18.61-.29l.3-.16.29-.17c.19-.11.38-.24.57-.37a12.59,12.59,0,0,0,2-1.74,15.62,15.62,0,0,0,3-4.46,17.55,17.55,0,0,0,1.41-5.18c0-.23,0-.47,0-.71V65.2a16.46,16.46,0,0,0-.14-2.1,13.1,13.1,0,0,0-.47-2l-.17-.5-.2-.49c-.06-.16-.14-.32-.21-.48s-.15-.31-.24-.47a10.81,10.81,0,0,0-1.17-1.74,13.81,13.81,0,0,0-3.12-2.79,18.68,18.68,0,0,0-3.74-1.87c-2.77-1-5.7-1.5-8.46-2.43a20.79,20.79,0,0,1-2-.79c-.33-.16-.66-.31-1-.49s-.63-.35-.94-.53a19,19,0,0,1-1.79-1.24l-.22-.17L23,47l-.1-.09-.41-.35-.1-.09-.1-.1-.2-.18-.2-.19-.1-.09-.09-.1a13.48,13.48,0,0,1-1.77-2.22A10.61,10.61,0,0,1,18.75,41l-.1-.34,0-.17,0-.17c-.05-.23-.1-.46-.14-.69a8.16,8.16,0,0,1-.08-1.4c0-.48,0-1,.08-1.43l0-.36,0-.18,0-.32,0-.67,0-.66-.54.79-.46.66c-.19.27-.38.53-.58.79a12.93,12.93,0,0,1-1.29,1.47c-.24.22-.49.43-.74.63a7,7,0,0,1-.82.51,4.87,4.87,0,0,1-.88.38,4.42,4.42,0,0,1-.94.22,4,4,0,0,1-1.19,0l-.29,0a1.52,1.52,0,0,1-.28-.09,1.33,1.33,0,0,1-.28-.1l-.13-.06-.07,0-.07,0-.26-.14-.24-.18-.12-.08-.12-.1L9,39a5.79,5.79,0,0,1-.76-.94A8.49,8.49,0,0,1,7.69,37a11.31,11.31,0,0,1-.46-1.14c-.07-.19-.14-.39-.2-.58l-.13-.39-.17-.55c-.09-.7-.28.05-.44.33L6,35.4c-.79,1.74-1.52,3.5-2.16,5.3A71.18,71.18,0,0,0,1,51.31c-.34,1.8-.6,3.61-.81,5.43A22.78,22.78,0,0,0,0,59.48q0,.69.06,1.38a13.11,13.11,0,0,0,.2,1.38,8.5,8.5,0,0,0,1.35,3.1,1.09,1.09,0,0,0,.13.17l.13.17.27.33.3.31c.05.05.09.1.15.15l.15.15.32.28.34.26a6.8,6.8,0,0,0,.71.48l.18.11.19.1.38.2.39.17.2.08.2.07.41.14.41.11a8.33,8.33,0,0,0,.84.17l.11,0h.1l.22,0c.14,0,.28,0,.42,0h.65l.21,0a6.91,6.91,0,0,0,1.68-.31,8.12,8.12,0,0,0,2.94-1.64,6.44,6.44,0,0,0,1-1.11,5,5,0,0,0,.65-1.33,5.5,5.5,0,0,0,.15-2.93,4.53,4.53,0,0,0-.55-1.37,3.45,3.45,0,0,0-.2-.32l-.11-.15-.12-.14a3.2,3.2,0,0,0-.25-.27A3.15,3.15,0,0,0,13.9,59a4.25,4.25,0,0,0-2.75-.92,3.72,3.72,0,0,0-1.5.35,2.24,2.24,0,0,0-.47.27L9,58.84,8.88,59c-.14.14-.19.2-.14.18l.15-.08A2,2,0,0,1,9.19,58.86Z"/>
    <path class="cls-2" d="M22.81,62.93a7.63,7.63,0,0,0-2.34-.7,9.41,9.41,0,0,0-1.32-.09,7.32,7.32,0,0,0-.9.08,5.93,5.93,0,0,0-.94.26,5.54,5.54,0,0,0-.85.4,5.71,5.71,0,0,0-.68.48l-.14.12a1.5,1.5,0,0,0-.13.11l-.2.21-.15.16s-.06.08-.08.1a3.54,3.54,0,0,0-.56,1,3.43,3.43,0,0,0-.23,1.26,3.61,3.61,0,0,0,.16,1c0,.13.07.24.1.31l0,.13a5.11,5.11,0,0,0,.9,1.42,6.6,6.6,0,0,0,1.27,1.09A7.06,7.06,0,0,0,18.2,71a7.45,7.45,0,0,0,1.55.37l.37,0,.36,0h.74c.25,0,.49,0,.74-.08s.48-.1.72-.15a9,9,0,0,0,3.24-1.64,10.09,10.09,0,0,0,1.86-1.89A7.88,7.88,0,0,0,29,65.29a14,14,0,0,0,.38-1.55,8.52,8.52,0,0,0,.12-1.59A8.32,8.32,0,0,0,29,59.54a7.44,7.44,0,0,0-.58-1.21c-.1-.19-.24-.37-.36-.56l-.21-.26a2.75,2.75,0,0,0-.22-.26c-.06,0-.11-.12-.17-.16a.61.61,0,0,0-.18-.05c0,.06,0,.14,0,.17A10.63,10.63,0,0,1,28.45,59s.05.1.08.14l.06.15.13.28.11.3a1.71,1.71,0,0,1,.09.3,8.78,8.78,0,0,1,.31,2.55,7,7,0,0,1-.54,2.51,3,3,0,0,0-.12.32,9.52,9.52,0,0,1-2.28,3.26,8.6,8.6,0,0,1-3.66,2,8,8,0,0,1-2.28.24l-.58,0-.28,0-.29,0-.28-.07-.28-.07a4.93,4.93,0,0,1-.54-.19l-.28-.11-.26-.13-.13-.07-.13-.07L17.05,70l-.24-.17c-.07-.06-.16-.11-.23-.18a5.36,5.36,0,0,1-.43-.4l-.23-.24-.21-.26a2.61,2.61,0,0,1-.19-.27c-.06-.09-.13-.18-.18-.27a4.32,4.32,0,0,1-.3-.56,4.14,4.14,0,0,1-.21-.59,3.31,3.31,0,0,1-.11-1.25,3.12,3.12,0,0,1,.41-1.19,3.4,3.4,0,0,1,.85-1,5.59,5.59,0,0,1,1.34-.78c.23-.1.48-.17.73-.25s.5-.12.76-.16a2.32,2.32,0,0,1,.38,0,2.64,2.64,0,0,1,.4,0,23.22,23.22,0,0,1,2.68.48C22.83,63.1,23.08,63.07,22.81,62.93Z"/>
    <path class="cls-2" d="M22.44,64.36c.06-.09.13-.17.18-.26L22.7,64l.07-.14a1.89,1.89,0,0,0,.09-.21,3.47,3.47,0,0,0,.25-.77,1.1,1.1,0,0,0,0-.18v-.18a1.64,1.64,0,0,0,0-.23,1.77,1.77,0,0,1,0-.23c0-.05.11-.06.2,0a.28.28,0,0,1,.2.21,2.27,2.27,0,0,1-.15,1l-.09.29a2.65,2.65,0,0,1-.11.3,3,3,0,0,1-.15.31l-.18.29-.13.18-.13.16a2.41,2.41,0,0,1-.21.24l-.22.22-.18.18c-.05.06-.11.11-.17.17l-.09.07c-.11.08-.16.08-.23,0l0,0a.15.15,0,0,1,0-.2c.19-.2.4-.38.59-.58l.21-.23a2.27,2.27,0,0,0,.18-.25Z"/>
    <path class="cls-2" d="M8.63,60.73c0-.12-.05-.25-.07-.37l0-.19,0-.19a2.48,2.48,0,0,1,0-.27,5.21,5.21,0,0,1,.06-1l.05-.42c0-.09,0-.19.05-.28a1.06,1.06,0,0,1,.09-.25c0-.11.35.14.3.32s-.14.67-.19,1a2.74,2.74,0,0,0,0,.64c0,.12,0,.24,0,.36s0,.23.06.35L9,60.7l.07.21c0,.1.07.21.11.31s.09.21.14.3l.15.22.16.2.07.08c.09.11.09.16,0,.24l0,.06c0,.06-.14,0-.22,0a2.35,2.35,0,0,1-.58-.83,3.88,3.88,0,0,1-.15-.36c0-.12-.08-.24-.11-.36Z"/>
    <g>
      <g>
        <line class="cls-4" x1="15.31" y1="43.01" x2="15.15" y2="44.75"/>
        <path class="cls-5" d="M15.31,43a1.11,1.11,0,0,1,.16.45,1.64,1.64,0,0,1,0,.44,2.07,2.07,0,0,1-.1.43,1.29,1.29,0,0,1-.24.42,1.1,1.1,0,0,1-.16-.46,1.3,1.3,0,0,1,0-.44,1.74,1.74,0,0,1,.09-.43A1.57,1.57,0,0,1,15.31,43Z"/>
      </g>
      <g>
        <line class="cls-4" x1="7.63" y1="42.4" x2="7.46" y2="44.13"/>
        <path class="cls-5" d="M7.63,42.4a1.14,1.14,0,0,1,.15.45,1.63,1.63,0,0,1,0,.44,2.23,2.23,0,0,1-.1.43,1.16,1.16,0,0,1-.24.41,1,1,0,0,1-.16-.45,1.63,1.63,0,0,1,0-.44,1.57,1.57,0,0,1,.09-.43A1.37,1.37,0,0,1,7.63,42.4Z"/>
      </g>
      <path class="cls-2" d="M10.26,45.75a5.55,5.55,0,0,1,.3,1,.08.08,0,0,0,.15,0c.31-.29.93-.87.85-1.13s-.71-.17-1.13-.16A.19.19,0,0,0,10.26,45.75Z"/>
      <g>
        <path class="cls-4" d="M10.77,48.39l-.68-.07"/>
        <path class="cls-6" d="M10.12,48.15c.25-.3.47-.28.66.07a1.32,1.32,0,0,1,0,.34q-.37.45-.66-.06A1.34,1.34,0,0,1,10.12,48.15Z"/>
      </g>
    </g>
  </g>
  <g id="greyCat">
    <g>
      <path class="cls-7" d="M73,22A72.38,72.38,0,0,0,66.84.4c-.68,2.22-1.61,4.72-3.78,5.52A5.16,5.16,0,0,1,58.36,5a15.21,15.21,0,0,1-3.24-3.76,23.23,23.23,0,0,1,.08,4.41c-.68,4.3-4.22,7.66-8.12,9.6-3.74,1.86-7.76,2.08-11.64,3.63a14.68,14.68,0,0,0-7.25,5.74,13.78,13.78,0,0,0-1.1,10.54,15,15,0,0,0,6.37,9c4.46,2.73,11.72,2.09,15.25-2a8,8,0,0,0,1.83-5.28,7,7,0,0,0,7.09-1.74,4.16,4.16,0,0,0,1.22-3.52,6.94,6.94,0,0,0,5,3,8.55,8.55,0,0,0,8.71-5.16A15.11,15.11,0,0,0,73,22Z"/>
      <path class="cls-2" d="M33.25,36.51a3.72,3.72,0,0,0,.37,1.17,6,6,0,0,0,.65,1.06,7.14,7.14,0,0,0,.86,1,8.31,8.31,0,0,0,1.48,1.15,9.94,9.94,0,0,0,1.59.74c.46.17.82.26.93.29a5.7,5.7,0,0,0,1.08.19,4.84,4.84,0,0,0,1.26,0,3.3,3.3,0,0,0,1-.35,1.86,1.86,0,0,0,.4-.27A2.72,2.72,0,0,0,43.82,40a3.12,3.12,0,0,0,.11-.86c0-.14,0-.28,0-.42l0-.21c0-.07,0-.14,0-.21a5,5,0,0,0-.6-1.51,5.84,5.84,0,0,0-1-1.22,14.42,14.42,0,0,0-2.41-1.67c-.52-.31-1-.61-1.53-1a8.79,8.79,0,0,1-1.39-1.11,5.37,5.37,0,0,1-.79-1,4.44,4.44,0,0,1-.5-1.14,3,3,0,0,1-.08-1.2A2.05,2.05,0,0,1,36,27.45a1.93,1.93,0,0,1,.57-.45,2.8,2.8,0,0,1,.7-.26,6.42,6.42,0,0,1,1.52-.12,14.5,14.5,0,0,1,5,1.09.83.83,0,0,0,.22.08.55.55,0,0,0,.18,0c0-.06,0-.14-.07-.16a7.83,7.83,0,0,0-2.06-.81c-.42-.09-.85-.16-1.27-.24a11.44,11.44,0,0,0-1.31-.17,9.69,9.69,0,0,0-1.32,0,5.4,5.4,0,0,0-1.31.24,2.8,2.8,0,0,0-.61.28,2.45,2.45,0,0,0-.54.42,1.61,1.61,0,0,0-.21.3,2.46,2.46,0,0,0-.33,1,3.3,3.3,0,0,0,.08,1,4.62,4.62,0,0,0,.93,1.85,12.14,12.14,0,0,0,3.4,2.7,19.09,19.09,0,0,1,2,1.29,5.76,5.76,0,0,1,1.54,1.69,3.76,3.76,0,0,1,.46,2.24,2.92,2.92,0,0,1-.45,1.19,2.4,2.4,0,0,1-.91.79,3.15,3.15,0,0,1-1.21.32,5.91,5.91,0,0,1-2.56-.43A11.92,11.92,0,0,1,37,40.61a11.49,11.49,0,0,1-1.32-.86l-.31-.25-.27-.29a12.15,12.15,0,0,1-1.47-2.28,2.5,2.5,0,0,0-.27-.52C33.26,36.33,33.22,36.36,33.25,36.51Z"/>
      <path class="cls-3" d="M50.58,37.37A8.83,8.83,0,0,1,50,39.76a9.33,9.33,0,0,1-.52,1.11,7.78,7.78,0,0,1-.7,1c-.12.16-.27.3-.41.46s-.14.14-.21.21-.15.15-.23.21l-.23.21-.11.1-.12.09-.25.19-.25.18a11.27,11.27,0,0,1-1,.65c-.37.19-.74.37-1.12.52a12.61,12.61,0,0,1-2.1.63l-.69.13-.36,0-.19,0-.19,0a12.09,12.09,0,0,1-1.62.07,13.25,13.25,0,0,1-3.55-.54,12.17,12.17,0,0,1-1.76-.7c-.29-.15-.56-.3-.83-.47l-.4-.27a3.48,3.48,0,0,1-.39-.28,13.35,13.35,0,0,1-2.61-2.59A15.27,15.27,0,0,1,28.47,38a16.19,16.19,0,0,1-.89-2.3c-.19-.63-.29-1.1-.34-1.33a17.93,17.93,0,0,1-.3-2,15.76,15.76,0,0,1,0-2.29,14.21,14.21,0,0,1,.36-2.4,11.19,11.19,0,0,1,.83-2.25,11.53,11.53,0,0,1,1.15-1.86c.21-.27.42-.51.63-.74a8.48,8.48,0,0,1,.6-.6,13.3,13.3,0,0,1,1.39-1.17L32,21l.17-.11.34-.23c.24-.15.47-.3.71-.43a15.53,15.53,0,0,1,1.46-.76,22.64,22.64,0,0,1,3.1-1.16c2.12-.63,4.31-1.05,6.45-1.72a19.87,19.87,0,0,0,3-1.2A19,19,0,0,0,50,13.69a16.54,16.54,0,0,0,2.42-2.16A12.9,12.9,0,0,0,54.34,8.9c.08-.15.15-.3.22-.45L54.77,8l.17-.46c.06-.15.12-.31.17-.47l.13-.47,0-.12s0-.08,0-.12l.05-.25c0-.16.07-.32.1-.48l0-.25,0-.25a11.77,11.77,0,0,0,0-2l-.07-1,0-.26V1.73h0l.12.17.19.27c.19.27.4.55.61.82a11.86,11.86,0,0,0,1.38,1.54A6.41,6.41,0,0,0,61,6.24a5,5,0,0,0,.94.07,5.07,5.07,0,0,0,1-.14,4.37,4.37,0,0,0,1.66-.92,6.15,6.15,0,0,0,1.19-1.46,12.39,12.39,0,0,0,.8-1.69c.11-.29.21-.59.31-.88L66.94,1l0-.07v0l0,0,.23.52c.13.28.25.56.37.85A73.44,73.44,0,0,1,71,12.37a79.22,79.22,0,0,1,2,10.49A18.77,18.77,0,0,1,73.19,26,11.92,11.92,0,0,1,73,27.62a10.41,10.41,0,0,1-.42,1.52l-.07.18-.08.18-.16.36L72.2,30l-.1.18-.2.34a8.37,8.37,0,0,1-6.05,3.73,4.63,4.63,0,0,1-.65,0c-.22,0-.44,0-.66,0a8.2,8.2,0,0,1-1.29-.19,7.16,7.16,0,0,1-2.38-1,6.66,6.66,0,0,1-1-.84,6.12,6.12,0,0,1-.79-1,5.3,5.3,0,0,1-.7-2.46A4.88,4.88,0,0,1,59,26.25a4,4,0,0,1,.79-1,3.44,3.44,0,0,1,1.08-.67,3.73,3.73,0,0,1,1.24-.28,1.69,1.69,0,0,1,.32,0h.31l.32.05.31.07.21.07.22.08.2.1.1,0,.1.05.15.08.14.07c.09,0,.19.09.28.15l-.15-.21a.39.39,0,0,0-.08-.1.48.48,0,0,0-.11-.09,3.53,3.53,0,0,0-1-.48A3.63,3.63,0,0,0,62.24,24a4.17,4.17,0,0,0-2.19.62l-.24.16-.22.19-.11.09-.11.11c-.06.07-.14.13-.2.21a4.11,4.11,0,0,0-.62,1,5.15,5.15,0,0,0-.47,2.26,5.69,5.69,0,0,0,.69,2.55,6.28,6.28,0,0,0,1.76,2A7.39,7.39,0,0,0,63,34.33a7.69,7.69,0,0,0,1.34.24c.22,0,.45,0,.68,0s.45,0,.67,0a8.53,8.53,0,0,0,4.9-2.09,8.16,8.16,0,0,0,1.71-2.08,8.26,8.26,0,0,0,.94-2.52,13.52,13.52,0,0,0,.26-2.68,26.78,26.78,0,0,0-.16-2.69c0-.47-.12-1-.18-1.42A73.18,73.18,0,0,0,69,5c-.25-.69-.53-1.37-.81-2.05l-.42-1c-.08-.17-.15-.33-.22-.5L67.3.85l-.36-.8,0,0s0,0,0,.05l0,.1L66.8.36l-.13.42-.11.33-.09.25c-.06.18-.12.35-.19.52a10.25,10.25,0,0,1-1,1.94,5,5,0,0,1-1.45,1.52,3.73,3.73,0,0,1-2,.62,5,5,0,0,1-2-.43,6.32,6.32,0,0,1-1.78-1.15,10.9,10.9,0,0,1-1.42-1.54c-.22-.28-.43-.56-.64-.85l-.17-.25-.3-.43L55,.45l0,.9v.22l0,.23,0,.39.08,1a11.59,11.59,0,0,1,0,1.86,10.14,10.14,0,0,1-1,3.56,12.74,12.74,0,0,1-2.19,3l-.16.17c0,.06-.11.11-.17.17l-.34.32c-.11.11-.23.21-.35.31l-.36.31c-.25.19-.49.39-.74.57l-.39.28-.19.13L49,14a17.78,17.78,0,0,1-4.44,2.12c-1.57.52-3.19.87-4.81,1.27-.93.22-1.85.46-2.77.75a20.46,20.46,0,0,0-2.69,1,17.4,17.4,0,0,0-2.4,1.39,13.94,13.94,0,0,0-2.11,1.8,11.67,11.67,0,0,0-1.69,2.21A11.26,11.26,0,0,0,27,27.1a14.29,14.29,0,0,0-.45,5.48A17.83,17.83,0,0,0,28,37.9a16.58,16.58,0,0,0,1.69,2.91A13.46,13.46,0,0,0,32,43.27l.33.27.34.25.17.12L33,44l.35.23a10.37,10.37,0,0,0,1.52.78,12.6,12.6,0,0,0,1.61.52,13.56,13.56,0,0,0,1.67.29,16.94,16.94,0,0,0,3.34,0,14.28,14.28,0,0,0,1.44-.21l.7-.17.35-.1.35-.11.34-.12L45,45l.17-.07.16-.08c.11,0,.23-.09.34-.15A12,12,0,0,0,47,44a11,11,0,0,0,1.15-.89l.13-.13.13-.12.26-.26c.16-.18.33-.36.48-.55a7.68,7.68,0,0,0,1.31-2.58,7.15,7.15,0,0,0,.27-1.5,5.5,5.5,0,0,0,0-.9c0-.19,0-.27,0-.22a.62.62,0,0,0,0,.16Z"/>
      <path class="cls-2" d="M50.74,28.88c.81-.13,1.57-.38,2.36-.51a6.86,6.86,0,0,1,1.26-.07,5.41,5.41,0,0,1,.86.1,4.84,4.84,0,0,1,.87.27,4.66,4.66,0,0,1,.77.4,4.77,4.77,0,0,1,.62.47l.12.11a.52.52,0,0,1,.1.11l.18.19.13.15.07.1a3.81,3.81,0,0,1,.47.86,3.47,3.47,0,0,1,.22,1.09,3.4,3.4,0,0,1-.1.92l-.09.29,0,.12a4.54,4.54,0,0,1-.8,1.33,5.86,5.86,0,0,1-1.17,1,7.51,7.51,0,0,1-1.35.7,7,7,0,0,1-1.48.37l-.36,0L53,37h-.71a5.71,5.71,0,0,1-.71-.08c-.23,0-.46-.09-.69-.14a8.11,8.11,0,0,1-3.1-1.63,9.32,9.32,0,0,1-1.72-1.88A11.81,11.81,0,0,1,44.87,31a6.83,6.83,0,0,1-.41-1.47A8.72,8.72,0,0,1,44.38,28a7.55,7.55,0,0,1,.49-2.49,6.7,6.7,0,0,1,.56-1.14,6.06,6.06,0,0,1,.35-.53l.2-.24c.07-.08.13-.17.2-.24a.59.59,0,0,0,.15-.17.78.78,0,0,0,.05-.18c-.06,0-.13,0-.17,0a4.74,4.74,0,0,0-1.35,1.75l-.07.15-.06.15-.11.3-.1.31c0,.1-.07.2-.1.3a7.47,7.47,0,0,0-.29,2.61,10.24,10.24,0,0,0,.49,2.58,3.27,3.27,0,0,0,.14.33,10.37,10.37,0,0,0,4,4.69,7.35,7.35,0,0,0,4.42,1.14c.21,0,.41,0,.61-.06s.2,0,.3-.06l.3-.06.29-.08L55,37c.19-.07.38-.13.57-.22l.28-.12.28-.14.14-.07.13-.08.27-.15.26-.18a2.4,2.4,0,0,0,.26-.18,6,6,0,0,0,.48-.4,4.61,4.61,0,0,0,.5-.52,2,2,0,0,0,.23-.28,3.28,3.28,0,0,0,.2-.31,3.9,3.9,0,0,0,.53-2.69,3.6,3.6,0,0,0-.49-1.3,5.18,5.18,0,0,0-.86-1.07,4.55,4.55,0,0,0-1.39-.94,3.59,3.59,0,0,0-.8-.27,4,4,0,0,0-.84-.1c-.13,0-.27,0-.41,0h-.42a5.17,5.17,0,0,0-1.41.15,12.25,12.25,0,0,0-1.34.42C50.63,28.75,50.45,28.93,50.74,28.88Z"/>
      <path class="cls-2" d="M50.7,30.47c-.05-.1-.11-.2-.16-.31L50.47,30l-.07-.16a2.18,2.18,0,0,1-.09-.23,3.8,3.8,0,0,1-.16-.87c0-.07,0-.13,0-.2a1.11,1.11,0,0,1,0-.19c0-.08,0-.17,0-.25a.73.73,0,0,1,0-.25c0-.05.11,0,.2,0s.16.13.16.21c0,.31,0,.61,0,.92a.87.87,0,0,0,0,.28c0,.1.07.18.09.28l.12.29c.05.1.09.2.14.29l.1.17.11.16a2.23,2.23,0,0,0,.19.24,2,2,0,0,0,.2.21l.19.14.2.11.08.05c.11.06.13.1.11.2a.64.64,0,0,0,0,.07c0,.07-.1.09-.2.06a1.91,1.91,0,0,1-.76-.53,3.08,3.08,0,0,1-.24-.27l-.2-.29Z"/>
      <path class="cls-2" d="M64.45,26.46c0-.11.08-.22.11-.33s0-.11,0-.17l0-.17a2.3,2.3,0,0,0,0-.26,4.59,4.59,0,0,0,0-.91,1.5,1.5,0,0,0,0-.2,1.77,1.77,0,0,0,0-.2c0-.08,0-.16-.07-.25a1.84,1.84,0,0,1,0-.25c0-.11.37-.09.43.13a3.06,3.06,0,0,1,.1,1.13c0,.22,0,.46-.06.69s0,.25-.06.37-.06.25-.1.37l-.07.22-.09.22c0,.11-.09.21-.14.32l-.15.31-.12.25c0,.08-.08.16-.12.24a.53.53,0,0,1-.06.1c-.08.13-.13.15-.22.11l-.07,0c-.06,0-.08-.12,0-.22.12-.27.27-.54.4-.83a3.13,3.13,0,0,0,.15-.32c0-.11.08-.22.11-.33Z"/>
    </g>
    <g>
      <g>
        <line class="cls-4" x1="58.21" y1="8.87" x2="58.38" y2="10.6"/>
        <path class="cls-5" d="M58.21,8.87a1.16,1.16,0,0,1,.24.41,2.23,2.23,0,0,1,.1.43,2.16,2.16,0,0,1,0,.44,1.35,1.35,0,0,1-.16.45,1.37,1.37,0,0,1-.25-.41A1.57,1.57,0,0,1,58,9.76a1.63,1.63,0,0,1,0-.44A1.35,1.35,0,0,1,58.21,8.87Z"/>
      </g>
      <g>
        <line class="cls-4" x1="65.9" y1="8.25" x2="66.07" y2="9.99"/>
        <path class="cls-5" d="M65.9,8.25a1.29,1.29,0,0,1,.24.42,2.07,2.07,0,0,1,.1.43,1.64,1.64,0,0,1,0,.44,1.25,1.25,0,0,1-.15.45,1.55,1.55,0,0,1-.25-.42,1.58,1.58,0,0,1-.09-.42,1.61,1.61,0,0,1,0-.44A1.49,1.49,0,0,1,65.9,8.25Z"/>
      </g>
      <path class="cls-2" d="M63.27,11.61a4.19,4.19,0,0,0-.3,1,.09.09,0,0,1-.16.05c-.3-.3-.93-.87-.84-1.13s.71-.17,1.12-.17A.21.21,0,0,1,63.27,11.61Z"/>
      <g>
        <path class="cls-4" d="M62.75,14.25l.69-.07"/>
        <path class="cls-6" d="M63.44,14.35c-.19.35-.41.37-.66.07a1,1,0,0,1,0-.34c.18-.35.4-.37.65-.07A1,1,0,0,1,63.44,14.35Z"/>
      </g>
    </g>
  </g>
</svg>
